<svg  viewBox="0 0 30 30" fill="none" xmlns="http://www.w3.org/2000/svg">
<path d="M19.2155 24.5273C18.8995 24.5273 18.5713 24.5151 18.2188 24.4787C17.5868 24.43 16.8697 24.3085 16.1283 24.1262L14.0864 23.64C8.48336 22.3152 6.64808 19.3496 7.96073 13.7587L9.15184 8.66609C9.41923 7.51144 9.73524 6.57557 10.1242 5.7977C12.2147 1.48297 16.2134 1.87191 19.0575 2.54039L21.0872 3.0144C23.9313 3.68288 25.7301 4.74029 26.7389 6.35679C27.7356 7.9733 27.8936 10.0517 27.2251 12.8957L26.034 17.9762C24.9887 22.4246 22.8131 24.5273 19.2155 24.5273ZM15.946 3.95027C13.9163 3.95027 12.6279 4.78891 11.765 6.58772C11.449 7.24405 11.1694 8.05838 10.9263 9.07933L9.73524 14.1719C8.65352 18.7662 9.9054 20.7716 14.4997 21.8655L16.5416 22.3517C17.1979 22.5097 17.8178 22.6069 18.3769 22.6555C21.6828 22.9837 23.3236 21.5373 24.2473 17.5629L25.4384 12.4825C25.9854 10.1367 25.9124 8.49593 25.1832 7.31697C24.4539 6.13802 23.0197 5.33584 20.6618 4.78891L18.6321 4.31489C17.6233 4.07181 16.7239 3.95027 15.946 3.95027Z" fill="white"/>
<path d="M10.124 27.0443C7.00037 27.0443 5.00709 25.1725 3.7309 21.2224L2.17517 16.4215C0.449277 11.0737 1.99286 8.05946 7.31638 6.33357L9.23674 5.71371C9.86876 5.51924 10.3428 5.38555 10.7682 5.31262C11.1206 5.2397 11.461 5.37339 11.6676 5.65294C11.8742 5.93248 11.9107 6.29711 11.7648 6.61312C11.4488 7.25729 11.1693 8.07162 10.9383 9.09257L9.74721 14.1852C8.66549 18.7794 9.91737 20.7849 14.5116 21.8787L16.5535 22.3649C17.2099 22.5229 17.8297 22.6202 18.3888 22.6688C18.7778 22.7052 19.0938 22.9726 19.2032 23.3494C19.3004 23.7262 19.1545 24.1151 18.8385 24.3339C18.0364 24.8808 17.0276 25.3427 15.7514 25.7559L13.831 26.3879C12.4333 26.8255 11.2179 27.0443 10.124 27.0443ZM9.45551 7.56114L7.88763 8.07162C3.54859 9.46935 2.51548 11.5112 3.91321 15.8624L5.46895 20.6633C6.87883 25.0024 8.92073 26.0476 13.2598 24.6499L15.1801 24.0179C15.2531 23.9936 15.3138 23.9693 15.3867 23.945L14.0984 23.6411C8.49534 22.3163 6.66006 19.3507 7.97271 13.7598L9.16381 8.66717C9.24889 8.27824 9.34613 7.90146 9.45551 7.56114Z" fill="white"/>
<path d="M21.2578 12.774C21.1849 12.774 21.112 12.7619 21.0269 12.7497L15.1321 11.2547C14.646 11.1332 14.3543 10.6349 14.4758 10.1487C14.5973 9.66255 15.0957 9.37085 15.5818 9.49239L21.4766 10.9874C21.9628 11.1089 22.2545 11.6072 22.1329 12.0934C22.0357 12.4945 21.6589 12.774 21.2578 12.774Z" fill="white"/>
<path d="M17.6968 16.8816C17.6239 16.8816 17.5509 16.8694 17.4659 16.8573L13.929 15.9579C13.4428 15.8363 13.1511 15.338 13.2727 14.8518C13.3942 14.3657 13.8925 14.074 14.3787 14.1955L17.9156 15.0949C18.4017 15.2165 18.6934 15.7148 18.5719 16.201C18.4747 16.6142 18.11 16.8816 17.6968 16.8816Z" fill="white"/>
</svg>
